<svg width="780" height="114" viewBox="0 0 780 114" fill="none" xmlns="http://www.w3.org/2000/svg">
<mask id="path-1-outside-1" maskUnits="userSpaceOnUse" x="-0.247986" y="0.47998" width="780" height="113" fill="black">
<rect fill="white" x="-0.247986" y="0.47998" width="780" height="113"/>
<path d="M73.416 84.68H29.64L21.576 107H7.75201L44.04 7.20798H59.16L95.304 107H81.48L73.416 84.68ZM69.672 74.024L51.528 23.336L33.384 74.024H69.672Z"/>
<path d="M190.031 107H176.927L124.223 27.08V107H111.119V6.48798H124.223L176.927 86.264V6.48798H190.031V107Z"/>
<path d="M225.473 6.63198V107H212.369V6.63198H225.473Z"/>
<path d="M349.615 7.35198V107H336.511V32.696L303.391 107H294.175L260.911 32.552V107H247.807V7.35198H261.919L298.783 89.72L335.647 7.35198H349.615Z"/>
<path d="M431.166 84.68H387.39L379.326 107H365.502L401.79 7.20798H416.91L453.054 107H439.23L431.166 84.68ZM427.422 74.024L409.278 23.336L391.134 74.024H427.422Z"/>
<path d="M530.645 6.63198V17.288H503.285V107H490.181V17.288H462.677V6.63198H530.645Z"/>
<path d="M559.88 6.63198V107H546.776V6.63198H559.88Z"/>
<path d="M627.717 108.008C618.405 108.008 609.909 105.848 602.229 101.528C594.549 97.112 588.453 91.016 583.941 83.24C579.525 75.368 577.317 66.536 577.317 56.744C577.317 46.952 579.525 38.168 583.941 30.392C588.453 22.52 594.549 16.424 602.229 12.104C609.909 7.68798 618.405 5.47998 627.717 5.47998C637.125 5.47998 645.669 7.68798 653.349 12.104C661.029 16.424 667.077 22.472 671.493 30.248C675.909 38.024 678.117 46.856 678.117 56.744C678.117 66.632 675.909 75.464 671.493 83.24C667.077 91.016 661.029 97.112 653.349 101.528C645.669 105.848 637.125 108.008 627.717 108.008ZM627.717 96.632C634.725 96.632 641.013 95 646.581 91.736C652.245 88.472 656.661 83.816 659.829 77.768C663.093 71.72 664.725 64.712 664.725 56.744C664.725 48.68 663.093 41.672 659.829 35.72C656.661 29.672 652.293 25.016 646.725 21.752C641.157 18.488 634.821 16.856 627.717 16.856C620.613 16.856 614.277 18.488 608.709 21.752C603.141 25.016 598.725 29.672 595.461 35.72C592.293 41.672 590.709 48.68 590.709 56.744C590.709 64.712 592.293 71.72 595.461 77.768C598.725 83.816 603.141 88.472 608.709 91.736C614.373 95 620.709 96.632 627.717 96.632Z"/>
<path d="M774.328 107H761.224L708.52 27.08V107H695.416V6.48798H708.52L761.224 86.264V6.48798H774.328V107Z"/>
</mask>
<path d="M73.416 84.68H29.64L21.576 107H7.75201L44.04 7.20798H59.16L95.304 107H81.48L73.416 84.68ZM69.672 74.024L51.528 23.336L33.384 74.024H69.672Z" stroke="white" stroke-width="10" mask="url(#path-1-outside-1)"/>
<path d="M190.031 107H176.927L124.223 27.08V107H111.119V6.48798H124.223L176.927 86.264V6.48798H190.031V107Z" stroke="white" stroke-width="10" mask="url(#path-1-outside-1)"/>
<path d="M225.473 6.63198V107H212.369V6.63198H225.473Z" stroke="white" stroke-width="10" mask="url(#path-1-outside-1)"/>
<path d="M349.615 7.35198V107H336.511V32.696L303.391 107H294.175L260.911 32.552V107H247.807V7.35198H261.919L298.783 89.72L335.647 7.35198H349.615Z" stroke="white" stroke-width="10" mask="url(#path-1-outside-1)"/>
<path d="M431.166 84.68H387.39L379.326 107H365.502L401.79 7.20798H416.91L453.054 107H439.23L431.166 84.68ZM427.422 74.024L409.278 23.336L391.134 74.024H427.422Z" stroke="white" stroke-width="10" mask="url(#path-1-outside-1)"/>
<path d="M530.645 6.63198V17.288H503.285V107H490.181V17.288H462.677V6.63198H530.645Z" stroke="white" stroke-width="10" mask="url(#path-1-outside-1)"/>
<path d="M559.88 6.63198V107H546.776V6.63198H559.88Z" stroke="white" stroke-width="10" mask="url(#path-1-outside-1)"/>
<path d="M627.717 108.008C618.405 108.008 609.909 105.848 602.229 101.528C594.549 97.112 588.453 91.016 583.941 83.24C579.525 75.368 577.317 66.536 577.317 56.744C577.317 46.952 579.525 38.168 583.941 30.392C588.453 22.52 594.549 16.424 602.229 12.104C609.909 7.68798 618.405 5.47998 627.717 5.47998C637.125 5.47998 645.669 7.68798 653.349 12.104C661.029 16.424 667.077 22.472 671.493 30.248C675.909 38.024 678.117 46.856 678.117 56.744C678.117 66.632 675.909 75.464 671.493 83.24C667.077 91.016 661.029 97.112 653.349 101.528C645.669 105.848 637.125 108.008 627.717 108.008ZM627.717 96.632C634.725 96.632 641.013 95 646.581 91.736C652.245 88.472 656.661 83.816 659.829 77.768C663.093 71.72 664.725 64.712 664.725 56.744C664.725 48.68 663.093 41.672 659.829 35.72C656.661 29.672 652.293 25.016 646.725 21.752C641.157 18.488 634.821 16.856 627.717 16.856C620.613 16.856 614.277 18.488 608.709 21.752C603.141 25.016 598.725 29.672 595.461 35.72C592.293 41.672 590.709 48.68 590.709 56.744C590.709 64.712 592.293 71.72 595.461 77.768C598.725 83.816 603.141 88.472 608.709 91.736C614.373 95 620.709 96.632 627.717 96.632Z" stroke="white" stroke-width="10" mask="url(#path-1-outside-1)"/>
<path d="M774.328 107H761.224L708.52 27.08V107H695.416V6.48798H708.52L761.224 86.264V6.48798H774.328V107Z" stroke="white" stroke-width="10" mask="url(#path-1-outside-1)"/>
</svg>
