<svg width="1920" height="1069" viewBox="0 0 1920 1069" fill="none" xmlns="http://www.w3.org/2000/svg">
<path fill-rule="evenodd" clip-rule="evenodd" d="M0 0H1047.48C1068.65 55.8592 1192.48 167.578 1518.47 167.578C1844.46 167.578 1921.96 320.315 1919.96 396.684V1027.17C1877.72 1012.17 1832.23 1004 1784.84 1004C1704.04 1004 1628.78 1027.74 1565.67 1068.63C1502.55 1027.74 1427.3 1004 1346.49 1004C1280.04 1004 1217.33 1020.06 1162.04 1048.52C1106.76 1020.06 1044.05 1004 977.591 1004C896.79 1004 821.534 1027.74 758.419 1068.63C695.305 1027.74 620.049 1004 539.247 1004C465.73 1004 396.803 1023.66 337.436 1058C278.068 1023.66 209.141 1004 135.624 1004C88.044 1004 42.3872 1012.23 0 1027.35V0Z" fill="url(#paint0_linear)"/>
<defs>
<linearGradient id="paint0_linear" x1="1358.5" y1="192" x2="26" y2="1049" gradientUnits="userSpaceOnUse">
<stop stop-color="#2AA9FF"/>
<stop offset="1" stop-color="#3FFFEC"/>
</linearGradient>
</defs>
</svg>
